<svg xmlns="http://www.w3.org/2000/svg" width="61.05" height="55.278" viewBox="0 0 61.05 55.278">
  <path id="Path_191419" data-name="Path 191419" d="M63.7-228.228,56.151-196.26H66.807L76.131-226.9c2.22-6.438,2.886-9.1,2.886-12.654,0-6.66-4.662-11.988-11.766-11.988-6.438,0-11.544,4.884-11.544,11.988A11.346,11.346,0,0,0,63.7-228.228Zm-37.74,0L18.411-196.26H29.067L38.391-226.9c2.22-6.438,2.886-9.1,2.886-12.654,0-6.66-4.662-11.988-11.766-11.988-6.438,0-11.544,4.884-11.544,11.988A11.346,11.346,0,0,0,25.959-228.228Z" transform="translate(-17.967 251.538)" fill="#0055a5"/>
</svg>
