<svg xmlns="http://www.w3.org/2000/svg" width="214.463" height="58.794" viewBox="0 0 214.463 58.794">
  <g id="Group_31924" data-name="Group 31924" transform="translate(1054.042 -1841.963)">
    <path id="Path_239666" data-name="Path 239666" d="M-1053.369,1900.757a.64.64,0,0,1-.106-.008.666.666,0,0,1-.567-.68q.179-4.263.378-8.522c.237-5.01.506-10.09.8-15.1q.221-3.772.463-7.547.117-1.836.241-3.674l.078-1.161a1.35,1.35,0,0,1,.074-.59.79.79,0,0,1,.279-.35.754.754,0,0,1,.57-.115.752.752,0,0,1,.484.32.584.584,0,0,1,.1.55.673.673,0,0,1-.178.295,3.813,3.813,0,0,1-.048.48c-.009.069-.018.128-.021.174l-.2,3q-.129,1.983-.252,3.964c-.417,6.733-.787,13.537-1.106,20.3q.118-.783.217-1.566c.513-3.926.785-7.961,1.049-11.862.488-7.243.994-14.731,3.058-21.888a.674.674,0,0,1,.485-.449.673.673,0,0,1,.5.084.662.662,0,0,1,.294.413c1.16,6.326,2.569,12.657,4.194,18.852a26.7,26.7,0,0,0,3.255-4.78c2.885-5.071,5.743-10.256,8.508-15.272q2.188-3.969,4.387-7.936a.632.632,0,0,1,.719-.306.677.677,0,0,1,.509.65c-.062,3.743-.2,7.521-.421,11.236-.352,6-.9,12.3-1.727,19.819q-.2,1.83-.413,3.657a28.326,28.326,0,0,1,4.241-2.617l.153-.078a1.081,1.081,0,0,1,1.262.007,3.709,3.709,0,0,1,.936.879,4.879,4.879,0,0,1,.915,2.35,6.784,6.784,0,0,1-.177,2.292,4.445,4.445,0,0,1,2.241-.124,2.758,2.758,0,0,1,2.014,2.1,8.485,8.485,0,0,1,1.73-.6,3.873,3.873,0,0,1,2.7.413,2.891,2.891,0,0,1,.987.93,7.12,7.12,0,0,0,.609,1.1c.956,1.033,2.854.754,4.755.291a30.966,30.966,0,0,0,9.479-4.139c0-.182.008-.367.015-.552.045-1.1.13-2.211.253-3.3a46.454,46.454,0,0,1,1.141-6.205,46.913,46.913,0,0,1,12.9-22.206.659.659,0,0,1,.674-.139,6.922,6.922,0,0,1,3.794,5.624c.349,2.854-.751,5.657-1.81,8.06a45.279,45.279,0,0,1-15.635,19.41,4.1,4.1,0,0,0,2.727,3.079,5.548,5.548,0,0,0,4.84-.563c2.675-1.558,4.2-4.313,5.67-6.977.648-1.172,1.318-2.384,2.078-3.482a.668.668,0,0,1,.793-.234.635.635,0,0,1,.4.689,13.646,13.646,0,0,0-.15,2.164c0,.376.026.749.063,1.122.007.066.011.145.014.23a1.974,1.974,0,0,0,.057.467,2.921,2.921,0,0,0,.786-.174c.232-.079.458-.177.685-.275.168-.072.336-.144.506-.21a2.855,2.855,0,0,1,2.25-.127l.107.054a5.07,5.07,0,0,1,1.312,1.255,2.133,2.133,0,0,0,1.22.556c1.473.193,2.727-.57,4.054-1.372a16.064,16.064,0,0,1,1.922-1.044c2.068-.888,4.058-.33,5.762.266l.462.164c1.479.531,3.156,1.132,4.441.25h0a.676.676,0,0,1,.936.181.63.63,0,0,1-.162.885c-1.856,1.274-4.013.508-5.747-.108l-.425-.15a9.587,9.587,0,0,0-2.911-.672,5.939,5.939,0,0,0-3.087,1.043l-.39.232c-1.7,1.01-4.023,2.4-6.213,1.27a4.089,4.089,0,0,1-1.079-.912c-.492-.529-.8-.821-1.3-.746-.7.214-1.463.484-2.2.788a2.459,2.459,0,0,1-1.34.051,1.124,1.124,0,0,1-.907-1.143,15.364,15.364,0,0,1-.137-1.578c-.233.411-.463.824-.69,1.232-1.7,3.058-3.457,6.22-6.818,7.8a6.626,6.626,0,0,1-5.061.381,5.807,5.807,0,0,1-3.481-3.084,4.549,4.549,0,0,1-.179-.532,31.079,31.079,0,0,1-10.472,4.212c-1.461.276-4.075.457-5.23-1.4a5.774,5.774,0,0,1-.276-.512,1.707,1.707,0,0,0-.544-.742,2.33,2.33,0,0,0-1.177-.389,6.049,6.049,0,0,0-3.118,1.067.678.678,0,0,1-.65.037l-.015.008,0-.015a.63.63,0,0,1-.142-.107.683.683,0,0,1-.117-.809.8.8,0,0,0,.027-.728,1.729,1.729,0,0,0-1.057-.928,3.63,3.63,0,0,0-2.6.67c-.332.675-.715,1.321-1.015,1.814-2.06,3.424-4.395,7.307-7.828,10.071a.668.668,0,0,1-.446.146.64.64,0,0,1-.158-.026l-.272.237.045-.358a.666.666,0,0,1-.245-.531c.25-1.972.495-3.906.738-5.836a3.577,3.577,0,0,1-2.524-.424,2.478,2.478,0,0,1-1.207-2.047,4.481,4.481,0,0,1,1.209-2.76,27.138,27.138,0,0,1,3.621-3.758c.72-6.122,1.249-11.246,1.664-16.11.522-6.134.847-11.763.987-17.138l-8.975,16.164c-.357.64-.707,1.292-1.059,1.947-1.645,3.057-3.346,6.217-5.839,8.712l-.109.109-.222.063a.638.638,0,0,1-.25,0l-.042.047-.016-.061a.666.666,0,0,1-.464-.505c-1.507-5.634-2.84-11.4-3.964-17.161a66.262,66.262,0,0,0-1.182,6.538c-.546,4.045-.827,8.2-1.1,12.225-.481,7.121-.977,14.484-2.958,21.532A.635.635,0,0,1-1053.369,1900.757Zm24.427-8.361-.6,4.722a24.508,24.508,0,0,0,3.193-3.784l0,0q1.53-2.2,2.855-4.443c-.676.44-1.345.886-2,1.324-.732.488-1.464.976-2.2,1.455A11.108,11.108,0,0,1-1028.942,1892.4Zm3.419,1.507-.014.029.017-.034Zm-3.949-7.966c-.191.182-.379.369-.564.556a23.964,23.964,0,0,0-1.9,2.152c-.764.991-.982,1.682-.7,2.237a1.778,1.778,0,0,0,1.753.788l.284-.041a3.385,3.385,0,0,0,.442-.118q.246-1.969.487-3.939Zm1.491-1.328q-.369,3.088-.753,6.171c.077-.049.153-.1.229-.148,1.294-.83,2.573-1.671,3.853-2.511l1.9-1.249c.184-.122.377-.25.576-.374a5.033,5.033,0,0,0,.248-4.26,2.728,2.728,0,0,0-.671-.884c-.07-.063-.128-.114-.167-.144a1.638,1.638,0,0,0-.339.185,27.915,27.915,0,0,0-2.544,1.483v0A27.241,27.241,0,0,0-1027.981,1884.609Zm33.432-1.443.068.017c-.057.484-.1.973-.125,1.463a43.78,43.78,0,0,0,13.724-16.783c1.889-3.917,3.705-8.377,1.375-11.807a5.022,5.022,0,0,0-.9-1.012,3.851,3.851,0,0,0-.663-.5c-.089.086-.217.236-.285.318s-.147.172-.2.224c-.176.175-.348.352-.519.532q-.59.615-1.153,1.251a45.026,45.026,0,0,0-3.876,5.064,46.057,46.057,0,0,0-5.524,11.7,45.325,45.325,0,0,0-1.484,6.41c-.16,1.034-.285,2.086-.372,3.126Zm40.534-.252h0Zm-97.737-18.852Zm.535-.7a.306.306,0,0,0-.081.01.321.321,0,0,0-.234.23.37.37,0,0,0,.067.333l.5-.468A.343.343,0,0,0-1051.217,1863.364Zm128.685,23.5-.056,0a.663.663,0,0,1-.6-.719c.014-.317.032-.656.053-.992a76.4,76.4,0,0,1,.945-7.91c.38-2.258.856-4.666,1.543-7.807l.575-2.6c.382-1.721.764-3.442,1.125-5.162.635-3.03,1.084-5.5,1.411-7.768.222-1.544.389-3,.505-4.414-1.892.754-3.8,1.537-5.683,2.329-2.687,1.127-5.419,2.317-8.125,3.536l-.57,30.014a.61.61,0,0,1-.645.625.666.666,0,0,1-.671-.667l.017-.887q.065-3.528.134-7.054l.137-7.018q.065-3.528.134-7.053l.143-7.361-1.017.466c-3.44,1.581-6.894,3.238-10.265,4.925q-1.284.645-2.56,1.3c-.264.135-.527.275-.79.417-.524.281-1.066.572-1.627.819a3.384,3.384,0,0,1-2.7.125,1.447,1.447,0,0,1-.738-1.112.662.662,0,0,1,.506-.728.662.662,0,0,1,.789.494c.016.129.055.183.112.207a1.907,1.907,0,0,0,1.326-.114,9.888,9.888,0,0,0,.974-.481c.435-.227.855-.444,1.276-.658q2.5-1.281,5.022-2.52c3.209-1.576,6.477-3.119,9.718-4.589l.067-3.5,0-.042-.006,0a.727.727,0,0,1-.38-.412.815.815,0,0,1,.045-.728.842.842,0,0,1,1.143-.322,1.135,1.135,0,0,1,.507.9,6.691,6.691,0,0,1,0,.861l-.049,2.652c3.093-1.387,6.235-2.741,9.352-4.029q1.965-.814,3.935-1.6a.49.49,0,0,1-.013-.052,2.649,2.649,0,0,1,.936-2.613.622.622,0,0,1,.447-.141h.005l.336-.41-.015.519a.656.656,0,0,1,.3.6c-.008.32-.019.659-.034,1,0,.11-.009.222-.015.333q2.256-.888,4.527-1.74c3.488-1.309,7.034-2.578,10.539-3.77a.667.667,0,0,1,.654.132.673.673,0,0,1,.22.636.628.628,0,0,1-.423.47l-1.336.456c-3.573,1.226-7.189,2.537-10.748,3.894q-1.765.675-3.523,1.368c-.14,1.937-.374,3.944-.714,6.127-.428,2.752-.989,5.5-1.482,7.818-.3,1.415-.613,2.829-.927,4.243-.26,1.177-.521,2.354-.774,3.528-.453,2.108-1.03,4.9-1.481,7.764-.181,1.145-.333,2.237-.455,3.29.977-2.366,2.06-4.72,3.217-7,.578-1.143,1.166-2.3,1.815-3.41.785-1.34,1.9-1.853,2.842-1.307a.665.665,0,0,1,.31.633,21.209,21.209,0,0,0,.157,5.272,5.593,5.593,0,0,0,1.241,3.209,1.427,1.427,0,0,0,1.155.4,3.081,3.081,0,0,0,1.51-.753,6.025,6.025,0,0,0,2.176-2.67,1.847,1.847,0,0,1-1.108-.055,1.879,1.879,0,0,1-.989-1.809,3.188,3.188,0,0,1,1.11-1.939.659.659,0,0,1,.664-.1,2.97,2.97,0,0,1,1.372,1.21l2.26-2.492a.662.662,0,0,1,.488-.152.651.651,0,0,1,.446.235,10.831,10.831,0,0,1,1.019,1.9,10.758,10.758,0,0,1,.806,3.632c.011.306.014.6,0,.91l.423.232a.86.86,0,0,1,.445,1,.99.99,0,0,1-.084.211l.019.149-.081-.046a1.123,1.123,0,0,1-.967.512,1.01,1.01,0,0,1-.726-.327,2.036,2.036,0,0,1-.375-1.452,10.36,10.36,0,0,0-.07-2.069,9.409,9.409,0,0,0-1.037-3.139l-1.643,1.825c-.163.184-.325.368-.49.55a3.918,3.918,0,0,1-.144,1.425,5.725,5.725,0,0,1-1.263,2.132,10.627,10.627,0,0,1-1.741,1.589,3.8,3.8,0,0,1-2.244.816,2.808,2.808,0,0,1-1.963-.888,7.2,7.2,0,0,1-1.558-4.121,22.29,22.29,0,0,1-.184-4.614,2.069,2.069,0,0,0-.325.3,8.232,8.232,0,0,0-.9,1.495,98.883,98.883,0,0,0-6,13.414A.659.659,0,0,1-922.532,1886.861Zm.343-.68v0Zm-10.22-.839v0Zm24.857-11.715a1.265,1.265,0,0,0-.242,1.065.365.365,0,0,0,.235.183.624.624,0,0,0,.369-.211l.042-.043c.055-.051.107-.1.159-.155A1.737,1.737,0,0,0-907.552,1873.627Zm-24.213-23.6a.268.268,0,0,0-.093.016.336.336,0,0,0-.175.182l.505.072a.169.169,0,0,0,0-.139.26.26,0,0,0-.121-.106A.263.263,0,0,0-931.765,1850.022Zm31.387-7.735,0,0Zm5.957,35.958a.651.651,0,0,1-.477-.207,4.959,4.959,0,0,1-1.025-1.736,2.6,2.6,0,0,1-.659-.034,1.658,1.658,0,0,1-1.367-1.572,3.354,3.354,0,0,1,.234-1.262c.112-.345.246-.715.39-1.079a20.058,20.058,0,0,1,.952-2.051c.126-.237.257-.47.391-.7q.148-1.486.322-2.969c.337-2.858.75-5.744,1.23-8.58a.658.658,0,0,1,.782-.538.636.636,0,0,1,.519.739c-.265,1.563-.511,3.153-.732,4.723-.2,1.421-.383,2.861-.548,4.3.178-.227.36-.452.547-.672a20.9,20.9,0,0,1,7.1-5.415l.126-.058.216,0a.65.65,0,0,1,.292.1l.035-.017,0,.04a.665.665,0,0,1,.265.591l-.187,2.092a.625.625,0,0,1-.671.587.664.664,0,0,1-.642-.672l.084-.949a19.607,19.607,0,0,0-6.146,5.21,19.754,19.754,0,0,0-1.309,1.9q-.064.664-.126,1.332a14.159,14.159,0,0,0-.1,3.242,7.067,7.067,0,0,0,1.139-.793c1.25-.948,2.45-1.943,3.59-2.97.913-.825,1.814-1.694,2.678-2.586l.179-.418a31.471,31.471,0,0,1,2.257-4.248,31.349,31.349,0,0,1,6.393-7.282.665.665,0,0,1,.851.014.627.627,0,0,1,.153.794c-.187.34-.378.682-.572,1.021a55.928,55.928,0,0,1-5.643,8.073c-.8.953-1.641,1.889-2.5,2.784-.8,1.955-1.667,4.7-.545,6.831.861-.418,1.71-.88,2.527-1.379a29.426,29.426,0,0,0,8.851-8.332.662.662,0,0,1,.923-.153c1.246.82,1.093,2.409,1.019,3.173-.02.2-.048.411-.078.627a3.769,3.769,0,0,0,.114,2.284.927.927,0,0,0,.583.472,3.781,3.781,0,0,0,2.532-.769q2.31-1.344,4.609-2.694a10.644,10.644,0,0,1,4.425-1.856,11.671,11.671,0,0,1,2.794.279,21.116,21.116,0,0,0,2.109.237,22.143,22.143,0,0,0,15.873-5.391.635.635,0,0,1,.63-.131.668.668,0,0,1,.442.511.643.643,0,0,1-.223.62c-.275.24-.564.482-.858.713a23.253,23.253,0,0,1-7.954,4.081,23.166,23.166,0,0,1-8.949.826c-.448-.047-.895-.121-1.342-.2a7.011,7.011,0,0,0-3.471-.016,11.437,11.437,0,0,0-2.009.986l-4.736,2.766a12.358,12.358,0,0,1-2.225,1.144,3.042,3.042,0,0,1-2.351.008,2.365,2.365,0,0,1-1.2-1.333,7.212,7.212,0,0,1-.027-3.211,3.755,3.755,0,0,0-.055-1.523c-.555.752-1.147,1.481-1.765,2.175a30.828,30.828,0,0,1-10.16,7.522.659.659,0,0,1-.784-.183,6.694,6.694,0,0,1-.986-4.891c.059-.386.134-.772.225-1.155-.769.723-1.557,1.424-2.357,2.095q-.944.789-1.917,1.536a10.475,10.475,0,0,1-1.831,1.248c-.033.016-.064.031-.1.044a3.642,3.642,0,0,0,.739,1.206.625.625,0,0,1,.15.612.673.673,0,0,1-.49.46A.713.713,0,0,1-894.421,1878.245Zm-.239-.415.009.009Zm-1.855-2.934a.9.9,0,0,0,.308.1c-.021-.159-.036-.32-.047-.48-.016-.4-.02-.806-.014-1.208-.023.063-.046.126-.068.189l-.054.149C-896.588,1874.191-896.746,1874.693-896.515,1874.9Zm14.651-13.519a29.825,29.825,0,0,0-1.787,2.43Q-882.725,1862.616-881.864,1861.377Zm41.4,1.176-.009.007Zm-137.8,15a.843.843,0,0,1-.275-.056.937.937,0,0,1-.411-.271l-.1-.145a.956.956,0,0,1-.119-.5l.033-.187a.837.837,0,0,1,.234-.4.637.637,0,0,1,.262-.19.875.875,0,0,1,.371-.079.652.652,0,0,1,.321.05.927.927,0,0,1,.413.274l.1.14a.953.953,0,0,1,.119.5l-.041.221a.791.791,0,0,1-.222.36.64.64,0,0,1-.266.194.84.84,0,0,1-.361.078A.214.214,0,0,1-978.267,1877.554Zm.091-.874h0a.125.125,0,0,0,.017-.021Zm.018-.056.005.005Zm-.16-.02-.009.011h0Zm.01-.01,0,.01.082-.053,0,0a.232.232,0,0,0-.076.047Z" fill="#030504"/>
  </g>
</svg>
