<svg xmlns="http://www.w3.org/2000/svg" width="208.057" height="81.133" viewBox="0 0 208.057 81.133">
  <path id="Path_239643" data-name="Path 239643" d="M513.3,370.765c-32.108-3.522-63.119,2.4-93.938,10.263.1-.179.208-.353.308-.536,2.986-5.577,6.088-11.91,6.562-18.323a.968.968,0,0,0-1.214-.923c-10.355,2.079-16.955,13.312-21.23,21.987l-.162.333q-6.013-.1-12,.1c-2.287.075-4.574.191-6.862.328a89.861,89.861,0,0,0,15.416-20.273c4.5-8.03,7.777-17.678,5.473-26.889a.716.716,0,0,0-.695-.532c-10.068,1.181-17.1,11.989-21.708,19.949a94.968,94.968,0,0,0-11.02,28.84q-6.687.755-13.328,1.875c.037-.158.075-.32.117-.47a.511.511,0,0,0-.986-.27c-.079.3-.154.611-.229.927q-5.246.917-10.446,2.054c-12.052,2.657-24.2,6.3-35.078,12.247a54.853,54.853,0,0,0-5.506,3.439c-.715.5-.537,1.8.478,1.763,21.562-.865,42.671-5.128,63.63-10.384-.1,7.681,2.017,16.663,10.4,18.664,4.89,1.164,9.764-.952,14.081-4.1a43.758,43.758,0,0,0-.1,5.518,1.006,1.006,0,0,0,.982.982c6.234.765,12.276-2.961,17.2-7.215a13.853,13.853,0,0,0,5.319,2.287c8.554,1.826,18.123-.125,26.453-2.212,6.641-1.663,15.2-3.822,20.319-8.716a.862.862,0,0,0,0-1.21c-8.683-7.436-19.924-11.128-30.936-13.461-1.339-.287-2.682-.528-4.03-.769a18.66,18.66,0,0,0,.453-3.543.93.93,0,0,0-1.164-.886,26.109,26.109,0,0,0-7.593,3.19q-2.377-.287-4.758-.507c.092-.154.179-.312.266-.466,30.437-7.872,61.048-14.027,92.795-11.133a54.56,54.56,0,0,1-7.427,4.142c-1.1.562-.137,2.163.965,1.647,3.568-1.688,7.036-3.14,9.956-5.864A1.09,1.09,0,0,0,513.3,370.765Zm-89.139-7.306c-.586,4.271-2.433,8.446-4.238,12.284-.948,2.017-2,3.984-3.09,5.93q-3.911,1.01-7.818,2.05c-1.1-.046-2.191-.079-3.285-.108C409.572,375.605,415.448,366.024,424.16,363.458Zm-13.041,22.1c1.1.062,2.2.125,3.3.208q-1.922,3.094-3.992,6.076a84.143,84.143,0,0,1-12.467,14.289,83.708,83.708,0,0,1,6-18.655Q407.538,386.507,411.119,385.557Zm-25.949.15c5.863-.37,11.752-.532,17.645-.449l-.071.15c-9.881,2.666-19.757,5.394-29.663,7.935a63.462,63.462,0,0,0,7.186-5.265c.853-.707,1.68-1.443,2.5-2.192C383.568,385.827,384.367,385.756,385.169,385.706Zm-11.49.973c2.366-.254,4.732-.461,7.107-.648a59.718,59.718,0,0,1-7.473,5.61c-.112.075-.233.141-.345.212.087-.994.2-1.926.32-2.757Q373.463,387.892,373.679,386.679Zm14.721-35.6c3.743-5.473,8.982-11.769,15.8-13.229.84-.179.84,6.155.8,6.982a34.467,34.467,0,0,1-1.58,8.113,62.482,62.482,0,0,1-8.242,16.435,86.079,86.079,0,0,1-12.264,14.73q-4.447.3-8.887.765A93.368,93.368,0,0,1,388.4,351.082ZM371.9,386.887c-.353,2.029-.649,4.059-.836,6.092A33.3,33.3,0,0,1,367.3,394.8q-2.67.661-5.344,1.3c-3.739-.054-3.976-3.9-3.427-7.311Q365.179,387.646,371.9,386.887Zm-31.464,5.83q8.421-2.246,17.025-3.751c-.466,3.156-.208,6.421,2.266,7.664-16.164,3.78-32.445,6.758-48.951,7.885C319.8,398.864,330.214,395.442,340.431,392.718Zm43.885,20.6c-9.548.749-11.627-9.232-11.544-17.528,9.6-2.433,19.171-5.061,28.744-7.652a76.094,76.094,0,0,0-5.868,19.945C392.347,410.708,388.5,412.991,384.317,413.315ZM411.888,399.1c1.668-4.845,6.013-9.457,10.912-12.5q2.751.343,5.489.778c-1.959,6.084-6.779,11.786-10.783,16.094-1.223,1.314-2.62,2.741-4.146,4.142C411.4,405.713,410.566,402.952,411.888,399.1Zm18.26-10.97c11.7,0,24.116,5.29,33.452,12.962-4.425,3.726-11.049,5.319-16.418,6.828a78.389,78.389,0,0,1-23.425,3.231,18.309,18.309,0,0,1-8.849-2.312c1.21-1.115,2.341-2.017,3.372-3.077,4.558-4.7,9.819-12.434,11.865-17.632Zm-1.056-4.425a16.651,16.651,0,0,1-.337,2c-1.135-.191-2.27-.353-3.406-.516A23.87,23.87,0,0,1,429.092,383.706Zm-9.053,2.57a28.336,28.336,0,0,0-9.635,11.64c-1.776,4.412-.961,8.246,1.576,10.916-4.313,3.684-9.5,6.8-14.771,6.579a42.745,42.745,0,0,1,.3-6.254,75.032,75.032,0,0,0,7.731-7.689,103.316,103.316,0,0,0,11.324-15.52C417.723,386.047,418.879,386.151,420.039,386.276Z" transform="translate(-306.339 -336.291)" fill="#464646"/>
</svg>
