<svg xmlns="http://www.w3.org/2000/svg" width="277" height="53.969" viewBox="0 0 277 53.969">
  <g id="Group_31703" data-name="Group 31703" transform="translate(-742.119 -125.836)">
    <g id="Group_31676" data-name="Group 31676" transform="translate(742.119 125.836)">
      <path id="Path_187580" data-name="Path 187580" d="M845.035,125.836,866.009,179.8h-17l-21.3-53.968Z" transform="translate(-794.393 -125.836)" fill="#fff"/>
      <path id="Path_187581" data-name="Path 187581" d="M759.443,125.836,780.418,179.8h-17l-21.3-53.968Z" transform="translate(-742.119 -125.836)" fill="#fff"/>
      <path id="Path_187582" data-name="Path 187582" d="M940.592,142.386c3.146,0,5.655-1.361,6.9-3.781l-2.9-1.694a4.571,4.571,0,0,1-4.023,2.239,5.053,5.053,0,0,1,0-10.1,4.571,4.571,0,0,1,4.023,2.239l2.9-1.694c-1.24-2.452-3.751-3.753-6.9-3.753-5.112,0-8.742,3.418-8.742,8.258S935.48,142.386,940.592,142.386Z" transform="translate(-857.994 -125.838)" fill="#fff"/>
      <rect id="Rectangle_2795" data-name="Rectangle 2795" width="7.448" height="2.327" transform="translate(78.045 20.673)" fill="#fff"/>
    </g>
    <g id="Group_30923" data-name="Group 30923" transform="translate(848.783 136.711)">
      <path id="Path_191527" data-name="Path 191527" d="M1021.407,175.326l4.5-.028,3.761-13.644,3.6,13.644h4.53l5.353-19.163H1039l-3.4,14.8-3.679-14.8h-4.283l-3.9,14.88-3.376-14.88h-4.118Zm24.242-.028h3.843v-8.4c0-2.443,1.345-3.761,3.432-3.761,2.031,0,3.375,1.318,3.375,3.761v8.4h3.845v-8.921c0-4.2-2.5-6.507-5.93-6.507a5.846,5.846,0,0,0-4.722,2.114v-7h-3.843Zm18.147,0h3.843v-15.21H1063.8Zm1.949-17.021a2.269,2.269,0,0,0,2.359-2.178c0-.025,0-.049,0-.074a2.27,2.27,0,0,0-2.287-2.253l-.074,0a2.254,2.254,0,0,0-2.359,2.144c0,.036,0,.072,0,.107a2.254,2.254,0,0,0,2.255,2.253l.106,0Zm6.287,12.3c0,3.487,1.949,4.722,4.859,4.722h2.415v-3.239h-1.784c-1.208,0-1.62-.439-1.62-1.455v-7.357h3.4v-3.158h-3.4v-3.76h-3.871v3.761h-1.812v3.158h1.812ZM1088.613,163a3.378,3.378,0,0,1,3.623,3.267h-7.22A3.531,3.531,0,0,1,1088.613,163Zm7.221,7.522h-4.146a3.136,3.136,0,0,1-3.048,1.839,3.558,3.558,0,0,1-3.651-3.514h11.117a9.007,9.007,0,0,0,.11-1.482,7.14,7.14,0,0,0-7.494-7.522c-4.5,0-7.632,3.047-7.632,7.851,0,4.777,3.212,7.852,7.632,7.852A7.07,7.07,0,0,0,1095.834,170.521Zm8.785-4.831a9.448,9.448,0,0,0,9.718,9.774c4.255,0,7.715-2.251,9-6.2h-4.42a4.812,4.812,0,0,1-4.612,2.773c-3.35,0-5.738-2.471-5.738-6.341,0-3.9,2.389-6.342,5.738-6.342a4.832,4.832,0,0,1,4.612,2.745h4.42a9.03,9.03,0,0,0-9-6.2,9.47,9.47,0,0,0-9.719,9.8Zm36.706,2a7.824,7.824,0,1,0-7.934,7.852A7.6,7.6,0,0,0,1141.325,167.693Zm-11.75,0c0-3.048,1.84-4.5,3.871-4.5s3.926,1.455,3.926,4.5c0,3.02-1.949,4.5-3.981,4.5-2.06,0-3.816-1.483-3.816-4.5Zm14.578,7.6H1148V154.981h-3.844Zm7.632,0h3.844V154.981h-3.844Zm6.643-7.66c0,4.749,3.075,7.907,6.918,7.907a6,6,0,0,0,5.052-2.471V175.3h3.871V160.089H1170.4v2.168a6.013,6.013,0,0,0-5.024-2.416C1161.5,159.843,1158.428,162.889,1158.428,167.639Zm11.97.055c0,2.883-1.922,4.475-4.035,4.475-2.059,0-4.008-1.647-4.008-4.529s1.949-4.42,4.008-4.42C1168.476,163.218,1170.4,164.811,1170.4,167.693Zm11.476.028c0-2.938,1.372-3.816,3.651-3.816h1.016v-4.036a5.275,5.275,0,0,0-4.667,2.58v-2.361h-3.844V175.3h3.844Z" transform="translate(-1016.204 -153.772)" fill="#fff"/>
      <path id="Path_191528" data-name="Path 191528" d="M1018.523,253.211h.985v-6.1h2.387v-.865h-5.76v.865h2.387Zm13.508-.866V250.1h3.491v-.846h-3.491v-2.139h3.92v-.865h-4.916v6.963h5.053v-.865Zm16.809.946a3.456,3.456,0,0,0,2.656-1.094l-.647-.627a2.59,2.59,0,0,1-1.959.836,2.63,2.63,0,0,1-2.734-2.522c0-.051,0-.1,0-.153a2.63,2.63,0,0,1,2.582-2.677c.051,0,.1,0,.153,0a2.579,2.579,0,0,1,1.959.826l.647-.627a3.441,3.441,0,0,0-2.646-1.084,3.563,3.563,0,1,0-.01,7.121Zm17.129-7.043v2.994h-4v-2.994h-.995v6.962h.995v-3.1h4v3.1h.995v-6.963Zm16.134,0v5.192l-4.178-5.192h-.815v6.963h.995v-5.192l4.177,5.192h.815v-6.963Zm14.284,7.043a3.564,3.564,0,1,0-3.71-3.561A3.528,3.528,0,0,0,1096.386,253.291Zm0-.886a2.619,2.619,0,0,1-2.714-2.52c0-.052,0-.1,0-.155a2.619,2.619,0,0,1,2.561-2.677c.051,0,.1,0,.155,0a2.615,2.615,0,0,1,2.694,2.533c0,.048,0,.1,0,.143a2.614,2.614,0,0,1-2.551,2.676c-.048,0-.1,0-.143,0Zm13.269.805h4.765v-.865h-3.77v-6.1h-.995Zm16.979.079a3.564,3.564,0,1,0-3.71-3.561,3.528,3.528,0,0,0,3.71,3.561Zm0-.885a2.62,2.62,0,0,1-2.715-2.52q0-.078,0-.155a2.619,2.619,0,0,1,2.56-2.677c.052,0,.1,0,.155,0a2.615,2.615,0,0,1,2.694,2.532c0,.048,0,.1,0,.143a2.615,2.615,0,0,1-2.551,2.677c-.048,0-.1,0-.143,0Zm18.093-.448a2.948,2.948,0,0,1-1.631.448,2.644,2.644,0,0,1-2.763-2.519c0-.052,0-.1,0-.157a2.634,2.634,0,0,1,2.775-2.675,2.759,2.759,0,0,1,2.019.805l.616-.617a3.492,3.492,0,0,0-2.676-1.074,3.565,3.565,0,1,0-.02,7.123,4.116,4.116,0,0,0,2.636-.886v-2.716h-.955Zm10.911,1.253h.995v-6.963h-.995Zm12.135-.866V250.1h3.491v-.846h-3.491v-2.139h3.919v-.865h-4.914v6.963h5.052v-.865Zm15.756.946c1.84,0,2.694-.915,2.694-1.979,0-2.557-4.217-1.492-4.217-3.193,0-.607.507-1.1,1.691-1.1a3.592,3.592,0,0,1,1.91.567l.328-.8a4.092,4.092,0,0,0-2.238-.617c-1.83,0-2.666.915-2.666,1.989,0,2.586,4.218,1.512,4.218,3.213,0,.607-.517,1.074-1.721,1.074a3.583,3.583,0,0,1-2.3-.805l-.368.775A4.143,4.143,0,0,0,1183.531,253.291Z" transform="translate(-1016.135 -210.2)" fill="#fff"/>
    </g>
  </g>
</svg>
