<svg xmlns="http://www.w3.org/2000/svg" width="59" height="59" viewBox="0 0 59 59">
  <g id="Layer_2" data-name="Layer 2" transform="translate(0.114 0.553)">
    <g id="people" transform="translate(0 -0.439)">
      <rect id="Rectangle_6468" data-name="Rectangle 6468" width="59" height="59" transform="translate(-0.114 -0.114)" fill="#fff" opacity="0"/>
      <path id="Path_239629" data-name="Path 239629" d="M14.67,22.339A9.67,9.67,0,1,0,5,12.67a9.67,9.67,0,0,0,9.67,9.67Zm0-14.5A4.835,4.835,0,1,1,9.835,12.67,4.835,4.835,0,0,1,14.67,7.835Z" transform="translate(7.087 4.687)" fill="#fff"/>
      <path id="Path_239630" data-name="Path 239630" d="M21.252,21.5A7.252,7.252,0,1,0,14,14.252,7.252,7.252,0,0,0,21.252,21.5Zm0-9.67a2.417,2.417,0,1,1-2.417,2.417A2.417,2.417,0,0,1,21.252,11.835Z" transform="translate(19.844 10.357)" fill="#fff"/>
      <path id="Path_239631" data-name="Path 239631" d="M38.261,15.4a12.087,12.087,0,0,0-7.4,2.538A16.922,16.922,0,0,0,2,29.909a2.417,2.417,0,1,0,4.835,0,12.087,12.087,0,0,1,24.174,0,2.417,2.417,0,1,0,4.835,0,16.68,16.68,0,0,0-2.079-8.1,7.252,7.252,0,0,1,11.749,5.681,2.417,2.417,0,1,0,4.835,0A12.087,12.087,0,0,0,38.261,15.4Z" transform="translate(2.835 18.874)" fill="#fff"/>
    </g>
  </g>
</svg>
