<svg id="Layer_2" data-name="Layer 2" xmlns="http://www.w3.org/2000/svg" width="59" height="59" viewBox="0 0 59 59">
  <g id="person">
    <rect id="Rectangle_6469" data-name="Rectangle 6469" width="59" height="59" fill="#fff" opacity="0"/>
    <path id="Path_239632" data-name="Path 239632" d="M17.854,22.707A9.854,9.854,0,1,0,8,12.854a9.854,9.854,0,0,0,9.854,9.854Zm0-14.78a4.927,4.927,0,1,1-4.927,4.927A4.927,4.927,0,0,1,17.854,7.927Z" transform="translate(11.707 4.39)" fill="#fff"/>
    <path id="Path_239633" data-name="Path 239633" d="M22.244,13A17.244,17.244,0,0,0,5,30.244a2.463,2.463,0,0,0,4.927,0,12.317,12.317,0,0,1,24.634,0,2.463,2.463,0,1,0,4.927,0A17.244,17.244,0,0,0,22.244,13Z" transform="translate(7.317 19.024)" fill="#fff"/>
  </g>
</svg>
