<svg id="Component_24_9" data-name="Component 24 – 9" xmlns="http://www.w3.org/2000/svg" width="30" height="32" viewBox="0 0 30 32">
  <g id="Group_682" data-name="Group 682" transform="translate(4 5)">
    <g id="Group_681" data-name="Group 681">
      <g id="Group_680" data-name="Group 680">
        <path id="Path_1339" data-name="Path 1339" d="M568.563,234.939c2.954,0,3.3.011,4.471.064a6.118,6.118,0,0,1,2.054.381,3.663,3.663,0,0,1,2.1,2.1,6.127,6.127,0,0,1,.381,2.054c.053,1.167.064,1.517.064,4.471s-.011,3.3-.064,4.47a6.127,6.127,0,0,1-.381,2.054,3.663,3.663,0,0,1-2.1,2.1,6.125,6.125,0,0,1-2.054.381c-1.166.053-1.516.064-4.471.064s-3.3-.011-4.471-.064a6.125,6.125,0,0,1-2.054-.381,3.663,3.663,0,0,1-2.1-2.1,6.119,6.119,0,0,1-.381-2.054c-.053-1.167-.064-1.517-.064-4.471s.011-3.3.064-4.471a6.119,6.119,0,0,1,.381-2.054,3.663,3.663,0,0,1,2.1-2.1,6.119,6.119,0,0,1,2.054-.381c1.167-.053,1.517-.064,4.471-.064m0-1.993c-3,0-3.381.013-4.561.067a8.121,8.121,0,0,0-2.685.514,5.657,5.657,0,0,0-3.236,3.236,8.121,8.121,0,0,0-.514,2.685c-.054,1.18-.067,1.557-.067,4.561s.013,3.381.067,4.561a8.121,8.121,0,0,0,.514,2.685,5.657,5.657,0,0,0,3.236,3.236,8.12,8.12,0,0,0,2.685.514c1.18.054,1.557.067,4.561.067s3.381-.013,4.561-.067a8.121,8.121,0,0,0,2.685-.514,5.657,5.657,0,0,0,3.236-3.236,8.121,8.121,0,0,0,.514-2.685c.054-1.18.067-1.557.067-4.561s-.013-3.381-.067-4.561a8.121,8.121,0,0,0-.514-2.685,5.657,5.657,0,0,0-3.236-3.236,8.122,8.122,0,0,0-2.685-.514c-1.18-.054-1.557-.067-4.561-.067Z" transform="translate(-557.5 -232.946)" fill="#fff"/>
        <path id="Path_1340" data-name="Path 1340" d="M583.857,253.622a5.681,5.681,0,1,0,5.681,5.681A5.681,5.681,0,0,0,583.857,253.622Zm0,9.369a3.688,3.688,0,1,1,3.688-3.688A3.688,3.688,0,0,1,583.857,262.991Z" transform="translate(-572.794 -248.24)" fill="#fff"/>
        <circle id="Ellipse_24" data-name="Ellipse 24" cx="1.328" cy="1.328" r="1.328" transform="translate(15.641 3.83)" fill="#fff"/>
      </g>
    </g>
  </g>
  <g id="Rectangle_73" data-name="Rectangle 73" fill="none" stroke="#707070" stroke-width="1" opacity="0">
    <rect width="30" height="32" stroke="none"/>
    <rect x="0.5" y="0.5" width="29" height="31" fill="none"/>
  </g>
</svg>
