<svg xmlns="http://www.w3.org/2000/svg" width="474" height="285.84" viewBox="0 0 474 285.84">
  <g id="Group_31661" data-name="Group 31661" transform="translate(-826 -2901.08)">
    <path id="Path_187580" data-name="Path 187580" d="M919.468,125.836l111.091,285.84H940.537L827.71,125.836Z" transform="translate(174.754 2775.244)" fill="#ffeded"/>
    <path id="Path_187581" data-name="Path 187581" d="M833.877,125.836l111.091,285.84H854.946L742.119,125.836Z" transform="translate(83.881 2775.244)" fill="#ffeded"/>
    <path id="Path_187582" data-name="Path 187582" d="M978.152,213.475c16.661,0,29.953-7.21,36.527-20.025l-15.38-8.973a24.213,24.213,0,0,1-21.308,11.857c-14.739,0-25.952-10.094-25.952-26.751,0-16.5,11.216-26.749,25.952-26.749A24.213,24.213,0,0,1,999.3,154.692l15.38-8.973c-6.569-12.989-19.867-19.879-36.527-19.879-27.076,0-46.3,18.1-46.3,43.739S951.075,213.475,978.152,213.475Z" transform="translate(285.321 2775.248)" fill="#ffeded"/>
    <rect id="Rectangle_2795" data-name="Rectangle 2795" width="39.446" height="12.327" transform="translate(1239.358 3010.576)" fill="#ffeded"/>
  </g>
</svg>
